<svg width="154" height="166" viewBox="0 0 154 166" fill="none" xmlns="http://www.w3.org/2000/svg">
<path fill-rule="evenodd" clip-rule="evenodd" d="M83.0402 0.00201169C79.6305 0.00201169 76.0947 0.0276374 74.2684 0.00201169C64.3121 -0.137692 66.5557 7.02701 67.8824 12.7656C69.7455 20.8249 72.6537 35.1008 74.2684 41.4836C75.029 44.4903 76.0372 49.4608 80.6494 49.4608C81.7984 49.4608 84.6801 49.4608 85.4321 49.4608C89.8911 49.4608 90.9835 44.7792 91.814 41.4836C93.4114 35.1451 96.3697 20.7831 98.1958 12.7656C99.5611 6.77135 101.456 0.00201169 91.814 0.00201169C90.2023 0.00201169 85.1159 0.00201169 83.0402 0.00201169Z" fill="#FA005C"/>
<path fill-rule="evenodd" clip-rule="evenodd" d="M24.3268 24.2763C21.9158 26.6874 19.4337 29.2057 18.1242 30.479C10.9852 37.4204 17.6379 40.9001 22.6338 44.0198C29.6501 48.4011 41.801 56.4393 47.4561 59.8109C50.12 61.3991 54.3476 64.2009 57.6089 60.9395C58.4214 60.1271 60.459 58.0894 60.9908 57.5577C64.1437 54.4047 61.6058 50.3219 59.8627 47.4042C56.5102 41.7928 48.4466 29.5454 44.0686 22.5849C40.7955 17.381 37.3488 11.2544 30.5308 18.0723C29.3912 19.212 25.7946 22.8086 24.3268 24.2763Z" fill="#02F1E6"/>
<path fill-rule="evenodd" clip-rule="evenodd" d="M141.623 24.3268C139.212 21.9158 136.693 19.4337 135.42 18.1242C128.479 10.9852 124.999 17.6379 121.879 22.6338C117.498 29.6501 109.46 41.801 106.088 47.4561C104.5 50.12 101.698 54.3476 104.96 57.6089C105.772 58.4214 107.81 60.459 108.342 60.9908C111.494 64.1437 115.577 61.6058 118.495 59.8627C124.106 56.5102 136.354 48.4466 143.314 44.0686C148.518 40.7955 154.645 37.3488 147.827 30.5308C146.687 29.3912 143.091 25.7946 141.623 24.3268Z" fill="#D538FF"/>
<path fill-rule="evenodd" clip-rule="evenodd" d="M141.604 141.575C144.015 139.164 146.497 136.646 147.807 135.372C154.946 128.431 148.293 124.951 143.297 121.832C136.281 117.45 124.13 109.412 118.475 106.04C115.811 104.452 111.584 101.65 108.322 104.912C107.51 105.724 105.472 107.762 104.94 108.294C101.787 111.447 104.325 115.529 106.068 118.447C109.421 124.059 117.485 136.306 121.863 143.266C125.136 148.47 128.582 154.597 135.4 147.779C136.54 146.639 140.137 143.043 141.604 141.575Z" fill="#FA005C"/>
<path fill-rule="evenodd" clip-rule="evenodd" d="M24.3315 141.573C26.7426 143.984 29.2609 146.466 30.5342 147.775C37.4755 154.914 40.9553 148.261 44.075 143.266C48.4563 136.249 56.4945 124.098 59.866 118.443C61.4543 115.779 64.256 111.552 60.9947 108.29C60.1823 107.478 58.1446 105.44 57.6128 104.909C54.4599 101.756 50.377 104.294 47.4594 106.037C41.8479 109.389 29.6006 117.453 22.6401 121.831C17.4362 125.104 11.3095 128.551 18.1275 135.369C19.2671 136.508 22.8638 140.105 24.3315 141.573Z" fill="#D538FF"/>
<path fill-rule="evenodd" clip-rule="evenodd" d="M83.2881 165.926C86.6979 165.926 90.2337 165.901 92.06 165.926C102.016 166.066 99.7727 158.901 98.446 153.163C96.5828 145.103 93.6747 130.827 92.06 124.445C91.2994 121.438 90.2912 116.467 85.6789 116.467C84.53 116.467 81.6483 116.467 80.8963 116.467C76.4373 116.467 75.3449 121.149 74.5143 124.445C72.917 130.783 69.9587 145.145 68.1326 153.163C66.7673 159.157 64.8723 165.926 74.5143 165.926C76.126 165.926 81.2124 165.926 83.2881 165.926Z" fill="#02F1E6"/>
<path fill-rule="evenodd" clip-rule="evenodd" d="M0.00201169 82.9688C0.00201169 86.3786 0.0276375 89.9144 0.00201169 91.7407C-0.137692 101.697 7.02701 99.4533 12.7656 98.1267C20.8249 96.2635 35.1008 93.3553 41.4836 91.7407C44.4903 90.98 49.4608 89.9718 49.4608 85.3596C49.4608 84.2106 49.4608 81.3289 49.4608 80.5769C49.4608 76.118 44.7792 75.0255 41.4836 74.195C35.1451 72.5977 20.7831 69.6394 12.7656 67.8132C6.77136 66.4479 0.00201169 64.5529 0.00201169 74.195C0.00201169 75.8067 0.00201169 80.8931 0.00201169 82.9688Z" fill="#FA005C"/>
</svg>
