<svg width="31" height="29" viewBox="0 0 31 29" fill="none" xmlns="http://www.w3.org/2000/svg">
<path fill-rule="evenodd" clip-rule="evenodd" d="M19.407 22.9505C19.5852 24.4976 20.3168 25.9098 21.3189 27.1066H25.0734V28.4849H6.22759V27.1066H9.98174C10.9839 25.9098 11.7158 24.498 11.8932 22.9505H3.91847C2.276 22.9505 0.934814 21.6384 0.934814 20.0324V2.99287C0.934814 1.38729 2.2764 0.0751343 3.91847 0.0751343H27.3822C29.0246 0.0751343 30.3658 1.38652 30.3658 2.99287V20.0324C30.3658 21.6384 29.0246 22.9505 27.3822 22.9505H19.407ZM17.9891 22.9505H13.3115C13.1644 24.5284 12.5599 25.7809 11.7304 27.1066H19.5699C18.7404 25.7809 18.1366 24.5284 17.9891 22.9505ZM2.25162 18.6445H29.0486V2.99287C29.0486 2.09797 28.2974 1.36306 27.3822 1.36306H3.91847C3.00323 1.36306 2.25162 2.09797 2.25162 2.99287V18.6445ZM4.80656 2.15374H26.4941C27.4121 2.15374 28.1598 2.88519 28.1598 3.78277V15.889C28.1598 16.7859 27.4113 17.5177 26.4941 17.5177H4.80656C3.88897 17.5177 3.1405 16.7859 3.1405 15.889V3.78277C3.1405 2.88519 3.88857 2.15374 4.80656 2.15374ZM26.4941 3.44204H4.80656C4.61581 3.44204 4.45848 3.59664 4.45848 3.78277V15.889C4.45848 16.0752 4.61581 16.2298 4.80656 16.2298H26.4941C26.6844 16.2298 26.8426 16.0752 26.8426 15.889V3.78277C26.8426 3.59664 26.6844 3.44204 26.4941 3.44204ZM29.0486 19.9328H2.25162V20.0324C2.25162 20.9273 3.00323 21.6622 3.91847 21.6622H27.3822C28.2978 21.6622 29.0486 20.9277 29.0486 20.0324V19.9328Z" fill="#FA005C"/>
</svg>
