<svg width="32" height="31" viewBox="0 0 32 31" fill="none" xmlns="http://www.w3.org/2000/svg">
<path d="M13.6413 30.4037C13.0222 30.4037 12.4402 30.1627 12.0024 29.7248L2.14591 19.8684C1.24222 18.9646 1.24222 17.4942 2.14591 16.5903L18.0574 0.678853C18.4953 0.241061 19.0773 0 19.6965 0C20.3156 0 20.8977 0.241133 21.3354 0.678925L31.1919 10.5353C32.0956 11.4391 32.0956 12.9096 31.1919 13.8133L15.2804 29.7248C14.8426 30.1627 14.2605 30.4037 13.6413 30.4037ZM19.6965 1.44868C19.4643 1.44868 19.246 1.53908 19.0819 1.70329L3.17034 17.6147C2.83142 17.9537 2.83142 18.5052 3.17034 18.844L13.0268 28.7004C13.191 28.8647 13.4093 28.9551 13.6414 28.9551C13.8736 28.9551 14.0919 28.8647 14.256 28.7004L30.1676 12.789C30.5065 12.4501 30.5065 11.8987 30.1676 11.5598L20.311 1.70329C20.1469 1.53908 19.9286 1.44868 19.6965 1.44868Z" fill="#FA005C"/>
<path d="M5.68938 18.2551C5.31591 18.2551 4.99894 17.9681 4.96822 17.5893C4.93592 17.1906 5.2329 16.8412 5.63165 16.8088L17.3277 15.8605L18.276 4.16447C18.3083 3.76572 18.6578 3.46888 19.0565 3.50104C19.4552 3.53335 19.7522 3.88284 19.7199 4.28152L18.7219 16.5912C18.6932 16.945 18.4124 17.226 18.0585 17.2545L5.74878 18.2526C5.72886 18.2544 5.70901 18.2551 5.68938 18.2551Z" fill="#FA005C"/>
<path d="M14.3402 26.9051C13.9524 26.9051 13.6313 26.5983 13.6168 26.2075L13.2841 17.2248C13.2692 16.8249 13.5813 16.489 13.9811 16.4742C14.379 16.4592 14.717 16.7714 14.7317 17.1712L15.0644 26.1539C15.0793 26.5537 14.7672 26.8898 14.3674 26.9045C14.3583 26.905 14.3492 26.9051 14.3402 26.9051Z" fill="#FA005C"/>
<path d="M27.6487 13.5973C27.6396 13.5973 27.6305 13.5972 27.6214 13.5968L18.6387 13.2641C18.2389 13.2493 17.9269 12.9133 17.9417 12.5135C17.9565 12.1137 18.2964 11.8019 18.6923 11.8165L27.675 12.1492C28.0748 12.164 28.3868 12.5 28.372 12.8998C28.3575 13.2904 28.0363 13.5973 27.6487 13.5973Z" fill="#FA005C"/>
<path d="M13.0381 2.88807H0.724341C0.324288 2.88807 0 2.56379 0 2.16373C0 1.76368 0.324288 1.43939 0.724341 1.43939H13.0381C13.4382 1.43939 13.7625 1.76368 13.7625 2.16373C13.7625 2.56379 13.4382 2.88807 13.0381 2.88807Z" fill="#FA005C"/>
<path d="M10.8651 5.78547H0.724341C0.324288 5.78547 0 5.46119 0 5.06113C0 4.66108 0.324288 4.33679 0.724341 4.33679H10.8651C11.2652 4.33679 11.5895 4.66108 11.5895 5.06113C11.5895 5.46119 11.2652 5.78547 10.8651 5.78547Z" fill="#FA005C"/>
<path d="M7.96775 8.68275H0.724341C0.324288 8.68275 0 8.35846 0 7.95841C0 7.55836 0.324288 7.23407 0.724341 7.23407H7.96775C8.36781 7.23407 8.6921 7.55836 8.6921 7.95841C8.6921 8.35846 8.36781 8.68275 7.96775 8.68275Z" fill="#FA005C"/>
<path d="M5.07039 11.5802H0.724341C0.324288 11.5802 0 11.2559 0 10.8558C0 10.4558 0.324288 10.1315 0.724341 10.1315H5.07039C5.47044 10.1315 5.79473 10.4558 5.79473 10.8558C5.79473 11.2559 5.47044 11.5802 5.07039 11.5802Z" fill="#FA005C"/>
</svg>
