<svg width="31" height="32" viewBox="0 0 31 32" fill="none" xmlns="http://www.w3.org/2000/svg">
<path d="M28.2639 2.368H22.4826V0.657778C22.4826 0.263111 22.2257 0 21.8403 0C21.4549 0 21.1979 0.263111 21.1979 0.657778V2.368H9.63542V0.657778C9.63542 0.263111 9.37847 0 8.99306 0C8.60764 0 8.35069 0.263111 8.35069 0.657778V2.368H2.56944C1.15625 2.368 0 3.552 0 4.99911V10.4587V28.9422C0 30.3893 1.15625 31.5733 2.56944 31.5733H28.2639C29.6771 31.5733 30.8333 30.3893 30.8333 28.9422V10.4587V4.99911C30.8333 3.552 29.6771 2.368 28.2639 2.368ZM1.28472 4.99911C1.28472 4.27556 1.86285 3.68356 2.56944 3.68356H8.35069V4.34133C7.45139 4.60444 6.74479 5.45956 6.74479 6.512C6.74479 7.76178 7.77257 8.81422 8.99306 8.81422C10.2135 8.81422 11.2413 7.76178 11.2413 6.512C11.2413 5.45956 10.5347 4.60444 9.63542 4.34133V3.68356H21.1979V4.34133C20.2986 4.60444 19.592 5.45956 19.592 6.512C19.592 7.76178 20.6198 8.81422 21.8403 8.81422C23.0608 8.81422 24.0885 7.76178 24.0885 6.512C24.0885 5.45956 23.3819 4.60444 22.4826 4.34133V3.68356H28.2639C28.9705 3.68356 29.5486 4.27556 29.5486 4.99911V9.80089H1.28472V4.99911ZM8.99306 5.52533C9.50694 5.52533 9.9566 5.98578 9.9566 6.512C9.9566 7.03822 9.50694 7.49867 8.99306 7.49867C8.47917 7.49867 8.02951 7.03822 8.02951 6.512C8.02951 5.98578 8.47917 5.52533 8.99306 5.52533ZM21.8403 5.52533C22.3542 5.52533 22.8038 5.98578 22.8038 6.512C22.8038 7.03822 22.3542 7.49867 21.8403 7.49867C21.3264 7.49867 20.8767 7.03822 20.8767 6.512C20.8767 5.98578 21.3264 5.52533 21.8403 5.52533ZM29.5486 28.9422C29.5486 29.6658 28.9705 30.2578 28.2639 30.2578H2.56944C1.86285 30.2578 1.28472 29.6658 1.28472 28.9422V11.1164H29.5486V28.9422Z" fill="#FA005C"/>
<path d="M13.1682 19.6676H17.6005C17.9859 19.6676 18.2429 19.4045 18.2429 19.0098V14.6027C18.2429 14.2081 17.9859 13.9449 17.6005 13.9449H13.1682C12.7828 13.9449 12.5259 14.2081 12.5259 14.6027V19.0098C12.5259 19.3387 12.8471 19.6676 13.1682 19.6676ZM13.8106 15.2605H16.9582V18.3521H13.8106V15.2605Z" fill="#FA005C"/>
<path d="M20.9409 19.6676H25.3732C25.7587 19.6676 26.0156 19.4045 26.0156 19.0098V14.6027C26.0156 14.2081 25.7587 13.9449 25.3732 13.9449H20.9409C20.5555 13.9449 20.2986 14.2081 20.2986 14.6027V19.0098C20.2986 19.3387 20.5555 19.6676 20.9409 19.6676ZM21.5833 15.2605H24.7309V18.3521H21.5833V15.2605Z" fill="#FA005C"/>
<path d="M20.9409 27.4293H25.3732C25.7587 27.4293 26.0156 27.1662 26.0156 26.7715V22.3644C26.0156 21.9697 25.7587 21.7066 25.3732 21.7066H20.9409C20.5555 21.7066 20.2986 21.9697 20.2986 22.3644V26.7715C20.2986 27.1662 20.5555 27.4293 20.9409 27.4293ZM21.5833 23.0222H24.7309V26.1137H21.5833V23.0222Z" fill="#FA005C"/>
<path d="M5.45987 27.4293H9.89216C10.2776 27.4293 10.5345 27.1662 10.5345 26.7715V22.3644C10.5345 21.9697 10.2776 21.7066 9.89216 21.7066H5.45987C5.07445 21.7066 4.8175 21.9697 4.8175 22.3644V26.7715C4.8175 27.1662 5.07445 27.4293 5.45987 27.4293ZM6.10223 23.0222H9.2498V26.1137H6.10223V23.0222Z" fill="#FA005C"/>
<path d="M5.45987 19.6676H9.89216C10.2776 19.6676 10.5345 19.4045 10.5345 19.0098V14.6027C10.5345 14.2081 10.2776 13.9449 9.89216 13.9449H5.45987C5.07445 13.9449 4.8175 14.2081 4.8175 14.6027V19.0098C4.8175 19.3387 5.07445 19.6676 5.45987 19.6676ZM6.10223 15.2605H9.2498V18.3521H6.10223V15.2605Z" fill="#FA005C"/>
<path d="M13.1682 27.4293H17.6005C17.9859 27.4293 18.2429 27.1662 18.2429 26.7715V22.3644C18.2429 21.9697 17.9859 21.7066 17.6005 21.7066H13.1682C12.7828 21.7066 12.5259 21.9697 12.5259 22.3644V26.7715C12.5259 27.1662 12.8471 27.4293 13.1682 27.4293ZM13.8106 23.0222H16.9582V26.1137H13.8106V23.0222Z" fill="#FA005C"/>
</svg>
