<svg width="30" height="29" viewBox="0 0 30 29" fill="none" xmlns="http://www.w3.org/2000/svg">
<path d="M26.3625 4.62499H22.188C22.4817 4.23741 22.6625 3.76011 22.6625 3.23749C22.6625 1.96238 21.6252 0.924988 20.35 0.924988C19.5911 0.924988 18.9218 1.29776 18.5 1.86433C18.0782 1.29776 17.409 0.924988 16.65 0.924988C15.8911 0.924988 15.2218 1.29776 14.8 1.86433C14.3782 1.29776 13.709 0.924988 12.95 0.924988C12.1911 0.924988 11.5218 1.29776 11.1 1.86433C10.6782 1.29776 10.009 0.924988 9.25005 0.924988C7.97494 0.924988 6.93755 1.96238 6.93755 3.23749C6.93755 3.76011 7.11839 4.23741 7.41207 4.62499H3.23755C1.96244 4.62499 0.925049 5.66238 0.925049 6.93749V20.35C0.925049 21.6251 1.96244 22.6625 3.23755 22.6625H6.93755V28.675H7.86255V22.6625H20.35C20.6053 22.6625 20.8125 22.4553 20.8125 22.2V18.9625C20.8125 18.0999 21.1492 17.2859 21.7579 16.6727C22.262 16.1718 22.8993 15.8554 23.5875 15.7574V22.2V28.675H24.5125V22.6625H26.3625C27.6377 22.6625 28.675 21.6251 28.675 20.35V6.93749C28.675 5.66238 27.6377 4.62499 26.3625 4.62499ZM20.35 1.84999C21.115 1.84999 21.7375 2.47251 21.7375 3.23749C21.7375 4.00246 21.115 4.62499 20.35 4.62499C19.5851 4.62499 18.9625 4.00246 18.9625 3.23749C18.9625 2.47251 19.5851 1.84999 20.35 1.84999ZM18.5121 4.62499H18.4885C18.4922 4.6199 18.4963 4.61574 18.5 4.61065C18.5037 4.61574 18.5079 4.6199 18.5121 4.62499ZM16.65 1.84999C17.415 1.84999 18.0375 2.47251 18.0375 3.23749C18.0375 4.00246 17.415 4.62499 16.65 4.62499C15.8851 4.62499 15.2625 4.00246 15.2625 3.23749C15.2625 2.47251 15.8851 1.84999 16.65 1.84999ZM14.8121 4.62499H14.7885C14.7922 4.6199 14.7963 4.61574 14.8 4.61065C14.8037 4.61574 14.8079 4.6199 14.8121 4.62499ZM12.95 1.84999C13.715 1.84999 14.3375 2.47251 14.3375 3.23749C14.3375 4.00246 13.715 4.62499 12.95 4.62499C12.1851 4.62499 11.5625 4.00246 11.5625 3.23749C11.5625 2.47251 12.1851 1.84999 12.95 1.84999ZM11.1121 4.62499H11.0885C11.0922 4.6199 11.0963 4.61574 11.1 4.61065C11.1037 4.61574 11.1079 4.6199 11.1121 4.62499ZM7.86255 3.23749C7.86255 2.47251 8.48507 1.84999 9.25005 1.84999C10.015 1.84999 10.6375 2.47251 10.6375 3.23749C10.6375 4.00246 10.015 4.62499 9.25005 4.62499C8.48507 4.62499 7.86255 4.00246 7.86255 3.23749ZM27.75 20.35C27.75 21.115 27.1275 21.7375 26.3625 21.7375H24.5125V15.2625C24.5125 15.0072 24.3053 14.8 24.05 14.8C22.9419 14.8 21.8962 15.232 21.1039 16.0187C20.6595 16.4664 20.3325 16.9978 20.129 17.575H18.9625V18.5H19.9153C19.8982 18.6526 19.8875 18.8066 19.8875 18.9625V21.7375H3.23755C2.47257 21.7375 1.85005 21.115 1.85005 20.35V6.93749C1.85005 6.17251 2.47257 5.54999 3.23755 5.54999H26.3625C27.1275 5.54999 27.75 6.17251 27.75 6.93749V20.35Z" fill="#FA005C"/>
<path d="M18.5 6.9375H9.25V7.8625H18.5V6.9375Z" fill="#FA005C"/>
<path d="M23.9146 6.61051C23.7337 6.42967 23.4414 6.42967 23.2606 6.61051L20.4856 9.38551C20.3048 9.56635 20.3048 9.85865 20.4856 10.0395L22.3356 11.8895L22.9896 11.2355L21.4666 9.7125L23.5876 7.59147L25.7086 9.7125L24.1856 11.2355L24.8396 11.8895L26.6896 10.0395C26.8704 9.85865 26.8704 9.56635 26.6896 9.38551L23.9146 6.61051Z" fill="#FA005C"/>
<path d="M4.16252 16.1875H7.86252C8.6275 16.1875 9.25002 15.565 9.25002 14.8V12.4875C9.25002 11.7225 8.6275 11.1 7.86252 11.1H4.16252C3.39755 11.1 2.77502 11.7225 2.77502 12.4875V14.8C2.77502 15.565 3.39755 16.1875 4.16252 16.1875ZM5.55002 15.2625V12.025H6.47502V15.2625H5.55002ZM8.32502 12.4875V14.8C8.32502 15.0548 8.11736 15.2625 7.86252 15.2625H7.40002V12.025H7.86252C8.11736 12.025 8.32502 12.2327 8.32502 12.4875ZM3.70002 12.4875C3.70002 12.2327 3.90769 12.025 4.16252 12.025H4.62502V15.2625H4.16252C3.90769 15.2625 3.70002 15.0548 3.70002 14.8V12.4875Z" fill="#FA005C"/>
<path d="M6.93752 17.575H2.77502V18.5H6.93752V17.575Z" fill="#FA005C"/>
<path d="M7.86255 17.575V18.5H8.32505H12.025H12.4875V17.575H12.025H8.32505H7.86255Z" fill="#FA005C"/>
<path d="M13.8751 17.575H13.4126V18.5H13.8751H17.5751H18.0376V17.575H17.5751H13.8751Z" fill="#FA005C"/>
<path d="M8.7875 19.8875H4.625V20.8125H8.7875V19.8875Z" fill="#FA005C"/>
<path d="M13.875 19.8875H9.71252V20.8125H13.875V19.8875Z" fill="#FA005C"/>
</svg>
