<svg xmlns="http://www.w3.org/2000/svg" xmlns:xlink="http://www.w3.org/1999/xlink" width="24" height="24" viewBox="0 0 24 24">
    <defs>
        <path id="a" d="M21.233 3.881C20.077 2.693 18.535 2 16.898 2a6.268 6.268 0 0 0-4.433 1.881l-.385.396-.385-.396a6.104 6.104 0 0 0-8.768 0C1.674 5.07 1 6.752 1 8.436c0 1.683.674 3.366 1.83 4.554l8.48 8.713c.192.198.385.297.674.297.289 0 .481-.099.674-.297l8.479-8.713c1.156-1.188 1.83-2.871 1.83-4.554.193-1.684-.481-3.367-1.734-4.555z"/>
    </defs>
    <use fill="#FFF" fill-rule="nonzero" xlink:href="#a"/>
</svg>
