<svg xmlns="http://www.w3.org/2000/svg" xmlns:xlink="http://www.w3.org/1999/xlink" width="24" height="24" viewBox="0 0 24 24">
    <defs>
        <path id="a" d="M22 10.9c-.3-4.8-4.092-8.7-8.982-8.9h-.5c-1.496 0-2.894.3-4.191 1-3.294 1.6-5.29 4.9-5.29 8.5 0 1.3.3 2.7.799 3.9l-1.797 5.3c-.1.4 0 .8.2 1 .3.2.499.3.798.3.1 0 .2 0 .3-.1l5.29-1.8c1.197.5 2.494.8 3.892.8 3.593 0 6.886-2 8.483-5.2.699-1.3.998-2.8.998-4.3v-.5z"/>
    </defs>
    <use fill="#FFF" fill-rule="nonzero" xlink:href="#a"/>
</svg>
